<svg xmlns="http://www.w3.org/2000/svg" viewBox="0 0 1200 760" font-family="Arial, Helvetica, sans-serif">
  <defs>
    <linearGradient id="salbg" x1="0" y1="0" x2="1" y2="1"><stop offset="0" stop-color="#fdf4f7"/><stop offset="1" stop-color="#f6e3ec"/></linearGradient>
    <linearGradient id="sv1" x1="0" y1="0" x2="1" y2="1"><stop offset="0" stop-color="#e879b8"/><stop offset="1" stop-color="#8a3d66"/></linearGradient>
    <linearGradient id="sv2" x1="0" y1="0" x2="1" y2="1"><stop offset="0" stop-color="#b088e0"/><stop offset="1" stop-color="#5b3f8a"/></linearGradient>
    <linearGradient id="sv3" x1="0" y1="0" x2="1" y2="1"><stop offset="0" stop-color="#f2a2c4"/><stop offset="1" stop-color="#c25a8e"/></linearGradient>
    <filter id="ds" x="-20%" y="-20%" width="140%" height="140%">
      <feDropShadow dx="0" dy="10" stdDeviation="16" flood-color="#c76a9c" flood-opacity="0.28"/>
    </filter>
  </defs>

  <rect width="1200" height="760" fill="url(#salbg)"/>

  <!-- Browser chrome -->
  <rect width="1200" height="46" fill="#efe1ea"/>
  <circle cx="28" cy="23" r="6" fill="#ff6b6b"/><circle cx="50" cy="23" r="6" fill="#ffb454"/><circle cx="72" cy="23" r="6" fill="#2fd48f"/>
  <rect x="470" y="11" width="260" height="24" rx="12" fill="#ffffff"/>
  <text x="600" y="27" text-anchor="middle" fill="#a8889a" font-size="12">luxesalon.co</text>

  <!-- Nav -->
  <text x="70" y="105" fill="#3a2233" font-size="26" font-weight="bold" letter-spacing="6" font-family="Georgia, serif">LUXE</text>
  <g fill="#8a6b7c" font-size="14">
    <text x="470" y="103">Services</text><text x="560" y="103">Pricing</text>
    <text x="640" y="103">Gallery</text><text x="715" y="103">Team</text><text x="775" y="103">Contact</text>
  </g>
  <rect x="1000" y="76" width="130" height="40" rx="20" fill="#e879b8"/>
  <text x="1065" y="101" text-anchor="middle" fill="#ffffff" font-size="14" font-weight="bold">Book Now</text>

  <!-- Hero -->
  <text x="70" y="185" fill="#c25a8e" font-size="12" letter-spacing="4">BEAUTY &amp; WELLNESS</text>
  <text x="70" y="262" fill="#3a2233" font-size="58" font-family="Georgia, serif">Beauty,</text>
  <text x="70" y="332" fill="#e879b8" font-size="58" font-style="italic" font-family="Georgia, serif">Perfected.</text>
  <text x="70" y="378" fill="#8a6b7c" font-size="15">Expert stylists, premium products and a calming</text>
  <text x="70" y="402" fill="#8a6b7c" font-size="15">space designed for your self-care ritual.</text>
  <rect x="70" y="428" width="190" height="46" rx="23" fill="#e879b8"/>
  <text x="165" y="457" text-anchor="middle" fill="#ffffff" font-size="14" font-weight="bold">Book Appointment</text>
  <rect x="276" y="428" width="150" height="46" rx="23" fill="none" stroke="#d8a8c2" stroke-width="1.5"/>
  <text x="351" y="457" text-anchor="middle" fill="#8a5a72" font-size="14">View Services</text>

  <!-- Booking card -->
  <rect x="760" y="140" width="380" height="360" rx="20" fill="#ffffff" filter="url(#ds)"/>
  <text x="790" y="190" fill="#3a2233" font-size="16" font-weight="bold" font-family="Georgia, serif">June 2025</text>
  <text x="1085" y="192" fill="#b58aa0" font-size="20">‹</text>
  <text x="1110" y="192" fill="#b58aa0" font-size="20">›</text>
  <g fill="#c79aad" font-size="11" text-anchor="middle">
    <text x="805" y="230">S</text><text x="850" y="230">M</text><text x="895" y="230">T</text>
    <text x="940" y="230">W</text><text x="985" y="230">T</text><text x="1030" y="230">F</text><text x="1075" y="230">S</text>
  </g>
  <g>
    <circle cx="805" cy="268" r="14" fill="#f7edf3"/><circle cx="850" cy="268" r="14" fill="#e879b8"/><circle cx="895" cy="268" r="14" fill="#f7edf3"/><circle cx="940" cy="268" r="14" fill="#f7edf3"/><circle cx="985" cy="268" r="14" fill="#e879b8"/><circle cx="1030" cy="268" r="14" fill="#f7edf3"/><circle cx="1075" cy="268" r="14" fill="#f7edf3"/>
    <circle cx="805" cy="310" r="14" fill="#e879b8"/><circle cx="850" cy="310" r="14" fill="#f7edf3"/><circle cx="895" cy="310" r="14" fill="#f7edf3"/><circle cx="940" cy="310" r="14" fill="#e879b8"/><circle cx="985" cy="310" r="14" fill="#f7edf3"/><circle cx="1030" cy="310" r="14" fill="#f7edf3"/><circle cx="1075" cy="310" r="14" fill="#e879b8"/>
    <circle cx="805" cy="352" r="14" fill="#f7edf3"/><circle cx="850" cy="352" r="14" fill="#f7edf3"/><circle cx="895" cy="352" r="14" fill="#e879b8"/><circle cx="940" cy="352" r="14" fill="#f7edf3"/><circle cx="985" cy="352" r="14" fill="#f7edf3"/><circle cx="1030" cy="352" r="14" fill="#e879b8"/><circle cx="1075" cy="352" r="14" fill="#f7edf3"/>
    <circle cx="805" cy="394" r="14" fill="#f7edf3"/><circle cx="850" cy="394" r="14" fill="#e879b8"/><circle cx="895" cy="394" r="14" fill="#f7edf3"/><circle cx="940" cy="394" r="14" fill="#f7edf3"/>
    <circle cx="985" cy="394" r="14" fill="#ffffff" stroke="#e879b8" stroke-width="2"/>
    <circle cx="1030" cy="394" r="14" fill="#f7edf3"/><circle cx="1075" cy="394" r="14" fill="#f7edf3"/>
  </g>
  <g font-size="12" text-anchor="middle">
    <rect x="790" y="428" width="74" height="26" rx="13" fill="#f7edf3"/><text x="827" y="445" fill="#8a5a72">09:00</text>
    <rect x="874" y="428" width="74" height="26" rx="13" fill="#e879b8"/><text x="911" y="445" fill="#ffffff" font-weight="bold">11:30</text>
    <rect x="958" y="428" width="74" height="26" rx="13" fill="#f7edf3"/><text x="995" y="445" fill="#8a5a72">14:00</text>
    <rect x="1042" y="428" width="74" height="26" rx="13" fill="#f7edf3"/><text x="1079" y="445" fill="#8a5a72">16:30</text>
  </g>
  <rect x="790" y="460" width="330" height="34" rx="17" fill="#e879b8"/>
  <text x="955" y="482" text-anchor="middle" fill="#ffffff" font-size="13" font-weight="bold">Confirm Booking</text>

  <!-- Service cards -->
  <g>
    <rect x="70" y="540" width="340" height="170" rx="16" fill="#ffffff" filter="url(#ds)"/>
    <rect x="70" y="540" width="340" height="86" rx="16" fill="url(#sv1)"/>
    <rect x="70" y="612" width="340" height="14" fill="#ffffff"/>
    <text x="90" y="656" fill="#3a2233" font-size="15" font-weight="bold">Hair Styling</text>
    <text x="90" y="680" fill="#8a6b7c" font-size="12">60 min · All hair types</text>
    <text x="390" y="658" text-anchor="end" fill="#c25a8e" font-size="15" font-weight="bold">from $35</text>
  </g>
  <g>
    <rect x="430" y="540" width="340" height="170" rx="16" fill="#ffffff" filter="url(#ds)"/>
    <rect x="430" y="540" width="340" height="86" rx="16" fill="url(#sv2)"/>
    <rect x="430" y="612" width="340" height="14" fill="#ffffff"/>
    <text x="450" y="656" fill="#3a2233" font-size="15" font-weight="bold">Spa &amp; Massage</text>
    <text x="450" y="680" fill="#8a6b7c" font-size="12">90 min · Aromatherapy</text>
    <text x="750" y="658" text-anchor="end" fill="#c25a8e" font-size="15" font-weight="bold">from $55</text>
  </g>
  <g>
    <rect x="790" y="540" width="340" height="170" rx="16" fill="#ffffff" filter="url(#ds)"/>
    <rect x="790" y="540" width="340" height="86" rx="16" fill="url(#sv3)"/>
    <rect x="790" y="612" width="340" height="14" fill="#ffffff"/>
    <text x="810" y="656" fill="#3a2233" font-size="15" font-weight="bold">Nail Art</text>
    <text x="810" y="680" fill="#8a6b7c" font-size="12">45 min · Gel included</text>
    <text x="1110" y="658" text-anchor="end" fill="#c25a8e" font-size="15" font-weight="bold">from $25</text>
  </g>
</svg>